<svg viewBox="0 0 20 21" fill="currentColor"><path d="M18.1632 7.02326L8.16325 17.0233C8.07615 17.1107 7.97266 17.18 7.8587 17.2273C7.74475 17.2746 7.62257 17.299 7.49918 17.299C7.3758 17.299 7.25362 17.2746 7.13967 17.2273C7.02571 17.18 6.92222 17.1107 6.83512 17.0233L2.46012 12.6483C2.37292 12.5611 2.30374 12.4575 2.25655 12.3436C2.20935 12.2296 2.18506 12.1075 2.18506 11.9842C2.18506 11.8609 2.20935 11.7387 2.25655 11.6248C2.30374 11.5109 2.37292 11.4073 2.46012 11.3201C2.54733 11.2329 2.65086 11.1638 2.7648 11.1166C2.87874 11.0694 3.00086 11.0451 3.12418 11.0451C3.24751 11.0451 3.36963 11.0694 3.48357 11.1166C3.59751 11.1638 3.70104 11.2329 3.78825 11.3201L7.49997 15.0319L16.8367 5.69669C17.0128 5.52057 17.2517 5.42163 17.5007 5.42163C17.7498 5.42163 17.9887 5.52057 18.1648 5.69669C18.3409 5.87281 18.4399 6.11169 18.4399 6.36076C18.4399 6.60983 18.3409 6.8487 18.1648 7.02482L18.1632 7.02326Z" fill="currentColor"/></svg>