<svg viewBox="0 0 25 24" fill="currentColor"><path d="M7.63506 16.5C8.03288 16.5 8.41441 16.342 8.69572 16.0607C8.97702 15.7794 9.13506 15.3978 9.13506 15C9.13506 14.6022 8.97702 14.2206 8.69572 13.9393C8.41441 13.658 8.03288 13.5 7.63506 13.5C7.23723 13.5 6.8557 13.658 6.5744 13.9393C6.29309 14.2206 6.13506 14.6022 6.13506 15C6.13506 15.3978 6.29309 15.7794 6.5744 16.0607C6.8557 16.342 7.23723 16.5 7.63506 16.5ZM21.7546 5.25L6.83556 3C6.18306 3 5.43456 3.672 5.43456 4.5V6.75H3.33456C2.56206 6.75 1.93506 7.422 1.93506 8.25V21C1.93506 21.828 2.56206 22.5 3.33456 22.5H21.5356C22.3081 22.5 22.9351 21.828 22.9351 21V6.75C22.9351 5.922 22.4056 5.25 21.7546 5.25ZM3.33456 21H21.5356V8.25H3.33456V21ZM6.83556 6.75V4.5L21.5356 6.75H6.83556Z" fill="currentColor"/></svg>