<svg viewBox="0 0 3 15" fill="currentColor"><path opacity="0.5" d="M3 1.5C3 2.32843 2.32843 3 1.5 3C0.671573 3 0 2.32843 0 1.5C0 0.671573 0.671573 0 1.5 0C2.32843 0 3 0.671573 3 1.5ZM3 7.16699C2.99982 7.99527 2.32832 8.66699 1.5 8.66699C0.671681 8.66699 0.000175953 7.99527 0 7.16699C0 6.33856 0.671573 5.66699 1.5 5.66699C2.32843 5.66699 3 6.33856 3 7.16699ZM3 12.833C3 13.6614 2.32843 14.333 1.5 14.333C0.671573 14.333 0 13.6614 0 12.833C0.000175714 12.0047 0.671681 11.333 1.5 11.333C2.32832 11.333 2.99982 12.0047 3 12.833Z" fill="currentColor" fill-opacity="0.6"/></svg>