<svg viewBox="0 0 24 24" fill="currentColor"><path d="M6.75 13.0373V5.24325L16.839 5.25075L14.0182 9.14025L16.8397 13.0313L6.75 13.0373ZM18.477 12.7343L15.8715 9.14025L18.477 5.54625C18.7627 5.15175 18.8175 4.71075 18.6262 4.33725C18.4357 3.96375 18.0465 3.75 17.5582 3.75H6.7515C6.35452 3.7494 5.97351 3.90627 5.69203 4.1862C5.41055 4.46614 5.25159 4.84628 5.25 5.24325V20.25C5.25 20.4489 5.32902 20.6397 5.46967 20.7803C5.61032 20.921 5.80109 21 6 21C6.19891 21 6.38968 20.921 6.53033 20.7803C6.67098 20.6397 6.75 20.4489 6.75 20.25V14.5313H17.5582C18.0495 14.5313 18.441 14.3175 18.6307 13.9448C18.8205 13.5728 18.765 13.131 18.477 12.7343Z" fill="currentColor"/></svg>