<svg viewBox="0 0 20 21" fill="currentColor"><path d="M16.2882 15.6967C16.4644 15.8728 16.5633 16.1117 16.5633 16.3608C16.5633 16.6099 16.4644 16.8487 16.2882 17.0248C16.1121 17.201 15.8733 17.2999 15.6242 17.2999C15.3751 17.2999 15.1362 17.201 14.9601 17.0248L9.99997 12.0631L5.03825 17.0233C4.86213 17.1994 4.62326 17.2983 4.37418 17.2983C4.12511 17.2983 3.88624 17.1994 3.71012 17.0233C3.534 16.8472 3.43506 16.6083 3.43506 16.3592C3.43506 16.1101 3.534 15.8713 3.71012 15.6952L8.67184 10.735L3.71168 5.77328C3.53556 5.59716 3.43662 5.35829 3.43662 5.10922C3.43662 4.86015 3.53556 4.62128 3.71168 4.44516C3.8878 4.26904 4.12668 4.17009 4.37575 4.17009C4.62482 4.17009 4.86369 4.26904 5.03981 4.44516L9.99997 9.40687L14.9617 4.44438C15.1378 4.26825 15.3767 4.16931 15.6257 4.16931C15.8748 4.16931 16.1137 4.26825 16.2898 4.44438C16.4659 4.6205 16.5649 4.85937 16.5649 5.10844C16.5649 5.35751 16.4659 5.59638 16.2898 5.7725L11.3281 10.735L16.2882 15.6967Z" fill="currentColor"/></svg>